<svg width="100" height="100" viewBox="0 0 100 100" fill="none" xmlns="http://www.w3.org/2000/svg">
<path d="M100 76.48H0V76.53H100V76.48Z" fill="#EBEBEB"/>
<path d="M81.424 77.842H66.666V77.892H81.424V77.842Z" fill="#EBEBEB"/>
<path d="M22.462 78.178H20.724V78.228H22.462V78.178Z" fill="#EBEBEB"/>
<path d="M85.462 79.698H81.624V79.748H85.462V79.698Z" fill="#EBEBEB"/>
<path d="M49.734 79.022H40V79.072H49.734V79.022Z" fill="#EBEBEB"/>
<path d="M38.22 79.022H33.344V79.072H38.22V79.022Z" fill="#EBEBEB"/>
<path d="M17.1221 78.178H10.4921V78.228H17.1221V78.178Z" fill="#EBEBEB"/>
<path d="M47.4001 67.56H8.78209C8.47956 67.5595 8.1896 67.4389 7.97587 67.2248C7.76213 67.0107 7.64209 66.7205 7.64209 66.418V12.132C7.64472 11.8312 7.76593 11.5436 7.97938 11.3316C8.19283 11.1197 8.48128 11.0005 8.78209 11H47.4001C47.703 11 47.9934 11.1203 48.2076 11.3345C48.4218 11.5487 48.5421 11.8391 48.5421 12.142V66.418C48.5421 66.7209 48.4218 67.0114 48.2076 67.2255C47.9934 67.4397 47.703 67.56 47.4001 67.56ZM8.78209 11.04C8.49282 11.0405 8.21558 11.1558 8.01122 11.3605C7.80686 11.5653 7.69209 11.8427 7.69209 12.132V66.418C7.69209 66.7073 7.80686 66.9847 8.01122 67.1895C8.21558 67.3942 8.49282 67.5095 8.78209 67.51H47.4001C47.6895 67.5095 47.967 67.3943 48.1717 67.1896C48.3763 66.9849 48.4916 66.7075 48.4921 66.418V12.132C48.4916 11.8425 48.3763 11.5651 48.1717 11.3604C47.967 11.1557 47.6895 11.0405 47.4001 11.04H8.78209Z" fill="#EBEBEB"/>
<path d="M90.662 67.56H52.042C51.7393 67.5595 51.4491 67.439 51.2351 67.2249C51.021 67.0109 50.9006 66.7207 50.9 66.418V12.132C50.9032 11.831 51.0248 11.5434 51.2386 11.3315C51.4524 11.1196 51.741 11.0005 52.042 11H90.662C90.9625 11.001 91.2504 11.1204 91.4634 11.3323C91.6765 11.5442 91.7974 11.8316 91.8 12.132V66.418C91.8 66.7202 91.6803 67.0101 91.4669 67.2241C91.2536 67.4382 90.9642 67.5589 90.662 67.56ZM52.042 11.04C51.7526 11.0405 51.4751 11.1557 51.2704 11.3604C51.0658 11.5651 50.9506 11.8425 50.95 12.132V66.418C50.9506 66.7075 51.0658 66.9849 51.2704 67.1896C51.4751 67.3943 51.7526 67.5095 52.042 67.51H90.662C90.9515 67.5095 91.2289 67.3943 91.4336 67.1896C91.6383 66.9849 91.7535 66.7075 91.754 66.418V12.132C91.7535 11.8425 91.6383 11.5651 91.4336 11.3604C91.2289 11.1557 90.9515 11.0405 90.662 11.04H52.042Z" fill="#EBEBEB"/>
<path d="M26.496 76.48H29.988L29.988 57.066H26.496L26.496 76.48Z" fill="#E6E6E6"/>
<path d="M27.542 76.48H26.494V73.538H28.64L27.542 76.48Z" fill="#F0F0F0"/>
<path d="M70.012 76.48H73.506V57.066H70.012V76.48Z" fill="#E6E6E6"/>
<path d="M26.494 75.044H70.926V57.068L26.494 57.068V75.044Z" fill="#F0F0F0"/>
<path d="M69.878 76.48H70.926V73.538H68.78L69.878 76.48Z" fill="#F0F0F0"/>
<path d="M27.308 65.526H70.114V58.332L27.308 58.332V65.526Z" fill="#E6E6E6"/>
<path d="M33.58 60.568H63.136C64.158 60.568 65.136 59.68 65.838 58.114H30.88C31.582 59.68 32.56 60.568 33.58 60.568Z" fill="#F0F0F0"/>
<path d="M27.308 73.88H70.114V66.686H27.308V73.88Z" fill="#E6E6E6"/>
<path d="M33.58 68.924H63.136C64.158 68.924 65.136 68.036 65.838 66.47H30.88C31.582 68.036 32.56 68.924 33.58 68.924Z" fill="#F0F0F0"/>
<path d="M89.384 15.776H10.614V48.556H89.384V15.776Z" fill="#F0F0F0"/>
<path d="M87.844 47.014V17.316L12.156 17.316V47.014H87.844Z" fill="#FAFAFA"/>
<path d="M22.12 47.016L29.884 17.318H35.608L27.844 47.016H22.12Z" fill="white"/>
<path d="M29.1639 47.016L36.9299 17.318H39.4899L31.7259 47.016H29.1639Z" fill="white"/>
<path d="M41.694 47.016L49.458 17.318H55.182L47.418 47.016H41.694Z" fill="white"/>
<path d="M56.1281 47.016L63.892 17.318H66.4521L58.6881 47.016H56.1281Z" fill="white"/>
<path d="M32.432 47.016V17.318H32.04V47.016H32.432Z" fill="#E0E0E0"/>
<path d="M12.548 47.014L12.548 17.316H12.156L12.156 47.014H12.548Z" fill="#E0E0E0"/>
<path d="M32.04 47.016V17.318H30.498V47.016H32.04Z" fill="#F0F0F0"/>
<path d="M51.542 47.014V17.316H51.15V47.014H51.542Z" fill="#E0E0E0"/>
<path d="M51.15 47.014V17.316H49.608V47.014H51.15Z" fill="#F0F0F0"/>
<path d="M70.6599 47.014V17.316H70.2679V47.014H70.6599Z" fill="#E0E0E0"/>
<path d="M70.2681 47.016V17.318H68.7261V47.016H70.2681Z" fill="#F0F0F0"/>
<path d="M89.778 48.556V15.776H89.386V48.556H89.778Z" fill="#E0E0E0"/>
<path d="M90.658 14.87H9.342C9.25146 14.8695 9.16477 14.8333 9.10075 14.7692C9.03673 14.7052 9.00052 14.6185 9 14.528C9.00052 14.4375 9.03673 14.3508 9.10075 14.2867C9.16477 14.2227 9.25146 14.1865 9.342 14.186H90.658C90.7485 14.1865 90.8352 14.2227 90.8993 14.2867C90.9633 14.3508 90.9995 14.4375 91 14.528C90.9995 14.6185 90.9633 14.7052 90.8993 14.7692C90.8352 14.8333 90.7485 14.8695 90.658 14.87Z" fill="#E0E0E0"/>
<g opacity="0.6">
<path opacity="0.6" d="M26.2939 13.526H9.65991V59.884H26.2939V13.526Z" fill="#F5F5F5"/>
<path opacity="0.6" d="M18.6759 60.372H17.2799L17.6719 14.014H18.2959L18.6759 60.372Z" fill="#E6E6E6"/>
<path opacity="0.6" d="M14.0579 60.372H13.3839L13.5739 14.014H13.8739L14.0579 60.372Z" fill="#E6E6E6"/>
<path opacity="0.6" d="M23.304 60.372H22.632L22.82 14.014H23.122L23.304 60.372Z" fill="#E6E6E6"/>
</g>
<g opacity="0.6">
<path opacity="0.6" d="M90.14 13.526H73.506V59.884H90.14V13.526Z" fill="#F5F5F5"/>
<path opacity="0.6" d="M80.024 60.372H78.63L79.022 14.014H79.646L80.024 60.372Z" fill="#E6E6E6"/>
<path opacity="0.6" d="M76.948 60.372H76.276L76.464 14.014H76.766L76.948 60.372Z" fill="#E6E6E6"/>
<path opacity="0.6" d="M84.068 60.372H83.394L83.584 14.014H83.884L84.068 60.372Z" fill="#E6E6E6"/>
<path opacity="0.6" d="M87.492 60.372H86.8199L87.0079 14.014H87.3099L87.492 60.372Z" fill="#E6E6E6"/>
</g>
<path d="M50 85.512C71.4165 85.512 88.778 84.4984 88.778 83.248C88.778 81.9976 71.4165 80.984 50 80.984C28.5835 80.984 11.222 81.9976 11.222 83.248C11.222 84.4984 28.5835 85.512 50 85.512Z" fill="#F5F5F5"/>
<path d="M79.7707 57.9702L79.567 60.6545L79.7664 60.6697L79.9702 57.9854L79.7707 57.9702Z" fill="#263238"/>
<path d="M79.226 67.824H76.702V67.624H79.04L79.484 61.8L79.682 61.816L79.226 67.824Z" fill="#263238"/>
<path d="M78.5759 67.124H35.0339L38.3439 23.58H81.8879L78.5759 67.124Z" fill="#263238"/>
<path opacity="0.1" d="M55.0359 67.124H50.0419L71.1799 23.58H76.1719L55.0359 67.124Z" fill="white"/>
<path opacity="0.1" d="M49.0339 67.124H44.0419L65.1799 23.58H70.1719L49.0339 67.124Z" fill="white"/>
<path d="M79.1819 59.164H35.6379L35.7039 58.288H79.2479L79.1819 59.164Z" fill="white"/>
<path d="M45.4559 59.164H35.6379L35.7039 58.288H45.5219L45.4559 59.164Z" fill="#F6F968"/>
<path d="M45.422 59.61C45.3797 59.6105 45.3378 59.602 45.299 59.5853C45.2601 59.5685 45.2252 59.5437 45.1966 59.5126C45.1679 59.4815 45.1461 59.4447 45.1326 59.4047C45.119 59.3646 45.1141 59.3221 45.118 59.28L45.202 58.174C45.2103 58.0852 45.251 58.0025 45.3162 57.9417C45.3815 57.8808 45.4668 57.8461 45.556 57.844C45.5983 57.8435 45.6402 57.852 45.6791 57.8687C45.7179 57.8855 45.7528 57.9103 45.7814 57.9414C45.8101 57.9725 45.8319 58.0093 45.8454 58.0493C45.859 58.0894 45.8639 58.1319 45.86 58.174L45.776 59.28C45.7677 59.3688 45.7271 59.4515 45.6618 59.5124C45.5965 59.5732 45.5112 59.6079 45.422 59.61Z" fill="#F6F968"/>
<path d="M59.3558 33.556C55.2578 33.556 51.6818 36.88 51.3698 40.978C51.0578 45.076 54.1278 48.4 58.2279 48.4C62.3279 48.4 65.9039 45.078 66.2139 40.978C66.5239 36.878 63.4559 33.556 59.3558 33.556ZM58.2978 47.484C54.6978 47.484 52.0138 44.572 52.2878 40.978C52.5618 37.384 55.6878 34.474 59.2878 34.474C62.8879 34.474 65.5719 37.386 65.2999 40.978C65.0279 44.57 61.8918 47.484 58.2978 47.484Z" fill="white"/>
<path d="M61.7999 40.138L57.8279 37.738C57.6904 37.6554 57.534 37.6093 57.3736 37.6041C57.2132 37.5989 57.0541 37.6348 56.9115 37.7083C56.7688 37.7818 56.6473 37.8906 56.5585 38.0242C56.4697 38.1579 56.4165 38.312 56.4039 38.472L56.0399 43.272C56.0261 43.4422 56.059 43.613 56.1349 43.766C56.2108 43.9189 56.327 44.0483 56.471 44.1402C56.6149 44.2321 56.7811 44.2831 56.9519 44.2876C57.1226 44.2922 57.2913 44.2501 57.4399 44.166L61.7779 41.766C61.9219 41.6854 62.0422 41.5684 62.1266 41.4266C62.2111 41.2848 62.2567 41.1233 62.2589 40.9583C62.2611 40.7934 62.2199 40.6307 62.1393 40.4867C62.0588 40.3427 61.9417 40.2224 61.7999 40.138Z" fill="white"/>
<path d="M41.254 62.588L39.284 61.4C39.2159 61.3588 39.1383 61.3357 39.0586 61.333C38.979 61.3302 38.9 61.348 38.8292 61.3845C38.7584 61.421 38.6981 61.4751 38.6541 61.5415C38.6102 61.608 38.584 61.6846 38.578 61.764L38.4 64.14C38.394 64.224 38.4106 64.308 38.4483 64.3833C38.486 64.4585 38.5432 64.5222 38.6141 64.5677C38.6849 64.6131 38.7667 64.6386 38.8508 64.6415C38.9349 64.6444 39.0183 64.6245 39.092 64.584L41.238 63.4C41.3108 63.3609 41.3719 63.3031 41.4151 63.2326C41.4582 63.1621 41.4818 63.0813 41.4834 62.9987C41.485 62.9161 41.4646 62.8345 41.4243 62.7623C41.384 62.6901 41.3253 62.63 41.254 62.588Z" fill="white"/>
<path d="M55.3858 62.588L53.4158 61.4C53.3477 61.3588 53.2701 61.3357 53.1905 61.333C53.1108 61.3302 53.0318 61.348 52.961 61.3845C52.8902 61.421 52.8299 61.4751 52.7859 61.5415C52.742 61.608 52.7158 61.6846 52.7098 61.764L52.5298 64.142C52.5233 64.2259 52.5396 64.31 52.577 64.3853C52.6144 64.4607 52.6715 64.5245 52.7423 64.57C52.813 64.6156 52.8948 64.6411 52.9789 64.6439C53.0629 64.6467 53.1462 64.6267 53.2198 64.586L55.3698 63.4C55.4432 63.3613 55.5048 63.3037 55.5483 63.2332C55.5919 63.1626 55.6157 63.0816 55.6173 62.9987C55.6189 62.9158 55.5983 62.834 55.5576 62.7618C55.5169 62.6896 55.4576 62.6296 55.3858 62.588Z" fill="white"/>
<path d="M57.0979 62.588L55.1299 61.4C55.0618 61.3588 54.9842 61.3357 54.9045 61.333C54.8249 61.3302 54.7459 61.348 54.6751 61.3845C54.6043 61.421 54.544 61.4751 54.5 61.5415C54.4561 61.608 54.4299 61.6846 54.4239 61.764L54.2419 64.142C54.2359 64.226 54.2526 64.31 54.2902 64.3853C54.3279 64.4605 54.3852 64.5242 54.456 64.5697C54.5268 64.6151 54.6086 64.6406 54.6927 64.6435C54.7768 64.6464 54.8602 64.6265 54.9339 64.586L57.084 63.4C57.1572 63.3612 57.2187 63.3034 57.262 63.2327C57.3053 63.162 57.329 63.081 57.3304 62.9982C57.3318 62.9153 57.311 62.8335 57.2701 62.7614C57.2293 62.6892 57.1698 62.6294 57.0979 62.588Z" fill="white"/>
<path d="M45.834 64.67C45.779 64.6702 45.7246 64.659 45.6741 64.6371C45.6237 64.6153 45.5783 64.5833 45.5407 64.5432C45.5032 64.503 45.4744 64.4555 45.456 64.4037C45.4376 64.3519 45.4301 64.2969 45.434 64.242L45.62 61.776C45.6312 61.6605 45.6845 61.5531 45.7696 61.4742C45.8548 61.3953 45.9659 61.3504 46.082 61.348C46.1369 61.3479 46.1913 61.3591 46.2418 61.3809C46.2922 61.4027 46.3376 61.4347 46.3752 61.4749C46.4127 61.5151 46.4416 61.5625 46.4599 61.6143C46.4783 61.6661 46.4858 61.7212 46.482 61.776L46.294 64.242C46.2832 64.3574 46.2304 64.4648 46.1455 64.5437C46.0607 64.6226 45.9498 64.6676 45.834 64.67Z" fill="white"/>
<path d="M47.4 64.67C47.345 64.6702 47.2906 64.659 47.2402 64.6371C47.1897 64.6153 47.1443 64.5833 47.1068 64.5432C47.0692 64.503 47.0404 64.4555 47.022 64.4037C47.0037 64.3519 46.9962 64.2969 47 64.242L47.188 61.776C47.1988 61.6606 47.2516 61.5533 47.3364 61.4743C47.4213 61.3954 47.5322 61.3505 47.648 61.348C47.703 61.3479 47.7574 61.3591 47.8078 61.3809C47.8583 61.4027 47.9037 61.4347 47.9412 61.4749C47.9788 61.5151 48.0076 61.5625 48.026 61.6143C48.0444 61.6661 48.0519 61.7212 48.048 61.776L47.86 64.242C47.8492 64.3574 47.7964 64.4648 47.7116 64.5437C47.6267 64.6226 47.5158 64.6676 47.4 64.67Z" fill="white"/>
<path d="M56.8219 64.67C56.7669 64.6702 56.7125 64.659 56.662 64.6371C56.6116 64.6153 56.5662 64.5833 56.5287 64.5432C56.4911 64.503 56.4623 64.4555 56.4439 64.4037C56.4255 64.3519 56.418 64.2969 56.4219 64.242L56.6079 61.776C56.6191 61.6605 56.6724 61.5531 56.7575 61.4742C56.8427 61.3953 56.9538 61.3504 57.0699 61.348C57.1248 61.3479 57.1793 61.3591 57.2297 61.3809C57.2801 61.4027 57.3256 61.4347 57.3631 61.4749C57.4006 61.5151 57.4295 61.5625 57.4478 61.6143C57.4662 61.6661 57.4737 61.7212 57.4699 61.776L57.2839 64.242C57.2726 64.3576 57.2194 64.465 57.1342 64.5439C57.0491 64.6227 56.9379 64.6676 56.8219 64.67Z" fill="white"/>
<path d="M75.342 64.498H70.81C70.7268 64.4983 70.6445 64.4813 70.5682 64.448C70.4919 64.4148 70.4234 64.3661 70.367 64.305C70.3106 64.2438 70.2675 64.1717 70.2405 64.093C70.2134 64.0143 70.203 63.9309 70.21 63.848L70.34 62.16C70.3558 61.9843 70.436 61.8207 70.5653 61.7007C70.6945 61.5807 70.8636 61.5128 71.04 61.51H75.572C75.6552 61.5097 75.7375 61.5267 75.8138 61.56C75.89 61.5932 75.9585 61.6419 76.015 61.703C76.0714 61.7642 76.1145 61.8364 76.1415 61.915C76.1685 61.9937 76.1789 62.0771 76.172 62.16L76.044 63.848C76.0282 64.024 75.9476 64.1879 75.8179 64.308C75.6883 64.428 75.5187 64.4957 75.342 64.498ZM71.014 61.8C70.9192 61.8041 70.8289 61.8417 70.7593 61.9062C70.6897 61.9707 70.6453 62.0578 70.634 62.152L70.506 63.84C70.5021 63.885 70.5076 63.9303 70.5223 63.9731C70.5369 64.0158 70.5603 64.055 70.591 64.0882C70.6217 64.1213 70.659 64.1477 70.7005 64.1656C70.742 64.1834 70.7868 64.1924 70.832 64.192H75.366C75.4613 64.1904 75.5527 64.1535 75.6225 64.0885C75.6923 64.0235 75.7356 63.935 75.744 63.84L75.874 62.152C75.8779 62.1068 75.8723 62.0613 75.8575 62.0185C75.8428 61.9756 75.8192 61.9363 75.7882 61.9031C75.7573 61.8699 75.7198 61.8436 75.678 61.8258C75.6363 61.8081 75.5913 61.7993 75.546 61.8H71.014Z" fill="white"/>
<path d="M35.6 18.4C32.934 19.096 32.684 24.8 30.166 23.8C27.648 22.8 27.108 26.702 32.3 26.41C31.358 27.836 34.142 29.01 37.326 27.35C37.424 28.682 41.286 29.66 40.916 26.206C40.546 22.752 42.216 20.264 39.81 19.426C38.846 17.676 35.88 18.182 35.6 18.4Z" fill="#F6F968"/>
<path opacity="0.5" d="M35.6 18.4C32.934 19.096 32.684 24.8 30.166 23.8C27.648 22.8 27.108 26.702 32.3 26.41C31.358 27.836 34.142 29.01 37.326 27.35C37.424 28.682 41.286 29.66 40.916 26.206C40.546 22.752 42.216 20.264 39.81 19.426C38.846 17.676 35.88 18.182 35.6 18.4Z" fill="black"/>
<path d="M31.6279 83.246C33.1759 83.246 33.3799 83.222 34.2499 83.192C34.9939 83.166 35.1719 83.258 35.7719 83.246C36.2719 83.234 36.2519 82.756 36.0979 82.206C36.0219 81.93 35.8979 81.344 35.7959 80.898L33.5279 80.734C33.2099 81.334 32.4899 82.212 31.6179 82.334C30.7839 82.44 31.0119 83.246 31.6279 83.246Z" fill="#263238"/>
<path d="M33.018 78.042C34.136 77.01 34.806 75.964 35.3 75.264C35.722 74.664 35.804 74.814 36.252 74.222C36.55 73.822 36.276 73.274 35.852 73.152C35.4562 73.0723 35.0686 72.9565 34.694 72.806L33.15 73.946C33.432 74.674 33.058 76.726 32.262 77.568C31.69 78.172 32.57 78.452 33.018 78.042Z" fill="#263238"/>
<path d="M27.828 40.534C27.828 40.534 23.38 53.25 22.8 57.904C22.238 62.456 33.26 74.292 33.26 74.292C33.528 74.492 34.632 73.12 34.694 72.76C31.956 67.466 30.252 59.628 27.494 57.706C34.094 47.928 35.008 41.674 35.008 41.674L27.828 40.534Z" fill="#F6F968"/>
<path opacity="0.6" d="M27.828 40.534C27.828 40.534 23.38 53.25 22.8 57.904C22.238 62.456 33.26 74.292 33.26 74.292C33.528 74.492 34.632 73.12 34.694 72.76C31.956 67.466 30.252 59.628 27.494 57.706C34.094 47.928 35.008 41.674 35.008 41.674L27.828 40.534Z" fill="white"/>
<path opacity="0.3" d="M30.954 45C30.954 45 30.592 49.676 30.498 52.856C31.368 51.304 32.076 49.888 32.648 48.624L30.954 45Z" fill="#F6F968"/>
<path d="M31.9099 72.932C32.1479 73.258 32.5739 73.838 32.8799 74.276C32.9799 74.42 33.1319 74.496 33.2239 74.454C33.9119 74.134 34.7359 73.254 34.9999 72.97C35.0539 72.912 35.0399 72.794 34.9699 72.678L34.2159 71.428C34.1139 71.258 33.9299 71.158 33.8359 71.228L31.8699 72.588C31.7999 72.64 31.7999 72.8 31.9099 72.932Z" fill="#F6F968"/>
<path d="M29.986 40.876C29.986 40.876 31.64 53.676 32.586 59.844C33.586 66.316 33.708 76.702 33.46 80.934C33.822 81.144 35.136 80.998 35.85 80.774C35.85 80.774 40.146 66.892 36.992 60.484C39.032 45.508 36.078 41.842 36.078 41.842L29.986 40.876Z" fill="#F6F968"/>
<path opacity="0.6" d="M29.986 40.876C29.986 40.876 31.64 53.676 32.586 59.844C33.586 66.316 33.708 76.702 33.46 80.934C33.822 81.144 35.136 80.998 35.85 80.774C35.85 80.774 40.146 66.892 36.992 60.484C39.032 45.508 36.078 41.842 36.078 41.842L29.986 40.876Z" fill="white"/>
<path d="M33.366 79.142C33.322 79.52 33.234 80.176 33.12 80.674C33.0936 80.7464 33.093 80.8256 33.1181 80.8985C33.1432 80.9713 33.1926 81.0333 33.258 81.074C34.222 81.416 35.686 81.202 36.152 81.12C36.2056 81.1023 36.253 81.0694 36.2885 81.0255C36.3239 80.9815 36.346 80.9282 36.352 80.872L36.64 79.444C36.68 79.244 36.598 79.062 36.468 79.054L33.608 78.854C33.488 78.846 33.386 78.972 33.366 79.142Z" fill="#F6F968"/>
<path d="M32.054 30.088L32.084 30.21L32.104 30.306L32.138 30.486C32.158 30.604 32.174 30.72 32.188 30.834C32.212 31.064 32.2279 31.292 32.2299 31.52C32.238 31.9762 32.2039 32.4321 32.128 32.882C31.9783 33.793 31.6536 34.6664 31.1719 35.454C30.9317 35.8428 30.6559 36.2083 30.348 36.546C30.196 36.714 30.034 36.87 29.87 37.024L29.6179 37.244C29.5279 37.316 29.4299 37.386 29.3279 37.444C28.8847 37.7457 28.3773 37.9401 27.8459 38.012C27.5323 38.0495 27.2142 38.0181 26.9139 37.92C26.76 37.8666 26.614 37.7926 26.4799 37.7C26.41 37.653 26.3432 37.6016 26.2799 37.546C26.2499 37.516 26.2219 37.486 26.1919 37.452L26.0839 37.324C26.0272 37.2644 25.9828 37.1942 25.9532 37.1174C25.9236 37.0406 25.9094 36.9587 25.9114 36.8764C25.9135 36.7942 25.9317 36.7131 25.9651 36.6379C25.9985 36.5626 26.0463 36.4947 26.1059 36.438C26.1656 36.3813 26.2358 36.3368 26.3126 36.3072C26.3894 36.2776 26.4712 36.2635 26.5535 36.2655C26.6358 36.2675 26.7168 36.2858 26.7921 36.3191C26.8673 36.3525 26.9352 36.4004 26.9919 36.46C26.9699 36.432 26.9819 36.438 26.9799 36.432C26.9779 36.426 26.9799 36.432 26.9919 36.432H27.0199L27.0799 36.416C27.1186 36.404 27.156 36.3886 27.1919 36.37C27.2622 36.3278 27.329 36.2804 27.3919 36.228C27.5836 36.0764 27.7604 35.907 27.9199 35.722C27.9699 35.67 28.0139 35.612 28.0679 35.556L28.2339 35.382C28.3379 35.262 28.4439 35.144 28.5379 35.018C28.7293 34.7742 28.8987 34.5138 29.0439 34.24C29.3277 33.6946 29.5164 33.1048 29.6019 32.496C29.6444 32.1885 29.6637 31.8783 29.6599 31.568C29.6599 31.414 29.6599 31.258 29.6359 31.108L29.6099 30.886L29.5859 30.72L29.564 30.574C29.5213 30.2548 29.6023 29.9314 29.7903 29.6699C29.9784 29.4085 30.2592 29.2288 30.5754 29.1678C30.8916 29.1067 31.2192 29.1688 31.4911 29.3413C31.763 29.5139 31.9586 29.7839 32.038 30.096L32.054 30.088Z" fill="#CE7A63"/>
<path d="M28.902 31.166C28.6454 32.2739 28.463 33.3978 28.356 34.53C28.156 36.18 28.018 37.81 27.828 40.53L36.08 41.838C36.28 39.486 36.972 36.88 39.28 31.884C39.4108 31.6244 39.4819 31.3388 39.4879 31.0481C39.494 30.7575 39.4349 30.4691 39.3151 30.2043C39.1952 29.9394 39.0176 29.7048 38.7952 29.5175C38.5728 29.3302 38.3114 29.1951 38.03 29.122C37.71 29.038 37.366 28.956 37.014 28.882C35.7805 28.5934 34.528 28.3929 33.266 28.282C32.854 28.256 32.424 28.24 32.01 28.232C30.524 28.214 29.178 29.72 28.902 31.166Z" fill="#F6F968"/>
<path d="M37.4199 24.626C36.9039 25.78 36.1539 27.924 36.8199 28.854C36.8199 28.854 35.7039 28.5 33.0419 29.616C32.4999 28.498 33.0719 28.26 33.0719 28.26C34.4919 28.156 34.6899 27.164 34.6719 26.202L37.4199 24.626Z" fill="#CE7A63"/>
<path d="M33.6 29.4C34.38 29.64 34.44 30.886 34.44 30.886C34.44 30.886 36.572 29.832 37.332 28.972C37.1121 28.7982 36.9017 28.6126 36.702 28.416C36.702 28.416 34.13 29 33.6 29.4Z" fill="white"/>
<path d="M32.852 29.146C32.852 29.146 32.132 29.224 31.728 30.146C31.824 28.358 32.694 28.19 32.694 28.19C32.9315 28.0985 33.1945 28.0985 33.432 28.19C33.238 28.2551 33.0732 28.3868 32.9671 28.5619C32.8609 28.7369 32.8201 28.9438 32.852 29.146Z" fill="white"/>
<path opacity="0.2" d="M36.296 25.268L34.664 26.2C34.6706 26.426 34.6578 26.6522 34.626 26.876C35.156 26.876 35.992 26.438 36.172 25.916C36.2522 25.7093 36.2942 25.4897 36.296 25.268Z" fill="black"/>
<path d="M38.8339 22.368C38.1599 24.258 37.9139 25.068 36.6559 25.826C34.7619 26.966 32.5839 25.86 32.6799 23.84C32.7639 22.024 33.8519 19.24 35.9599 18.914C36.4103 18.8288 36.8753 18.8656 37.3066 19.0206C37.738 19.1756 38.12 19.4431 38.4132 19.7954C38.7064 20.1477 38.9 20.5721 38.9739 21.0244C39.0479 21.4767 38.9996 21.9406 38.8339 22.368Z" fill="#CE7A63"/>
<path d="M36.6119 18.016C35.1459 18.016 32.9999 19.366 34.8639 19.766C34.8459 20.366 35.9419 20.416 36.7519 20.134C36.6199 20.568 37.3239 21.47 38.3359 21.242C37.7359 21.534 37.6399 23.042 38.3359 23.15C39.0319 23.258 40.4799 23.72 40.3359 21.242C40.1919 18.764 38.1799 18.016 36.6119 18.016Z" fill="#F6F968"/>
<path opacity="0.5" d="M36.6119 18.016C35.1459 18.016 32.9999 19.366 34.8639 19.766C34.8459 20.366 35.9419 20.416 36.7519 20.134C36.6199 20.568 37.3239 21.47 38.3359 21.242C37.7359 21.534 37.6399 23.042 38.3359 23.15C39.0319 23.258 40.4799 23.72 40.3359 21.242C40.1919 18.764 38.1799 18.016 36.6119 18.016Z" fill="black"/>
<path d="M40.562 16.05C38.676 14.874 36.896 16.85 37.246 17.95L39.868 19.15C41.306 19.2 42.2 17.066 40.562 16.05Z" fill="#F6F968"/>
<path opacity="0.5" d="M40.562 16.05C38.676 14.874 36.896 16.85 37.246 17.95L39.868 19.15C41.306 19.2 42.2 17.066 40.562 16.05Z" fill="black"/>
<path d="M38.02 18.5C37.306 18.276 36.514 18.166 37.02 17.876C37.526 17.586 38.696 17.876 39.348 18.334C40.056 18.834 40.458 19.652 39.832 19.548C39.206 19.444 39.554 18.98 38.02 18.5Z" fill="#F6F968"/>
<path d="M36.296 22.3C36.246 22.46 36.122 22.57 36.016 22.546C35.91 22.522 35.868 22.372 35.918 22.21C35.968 22.048 36.092 21.938 36.196 21.964C36.3 21.99 36.346 22.138 36.296 22.3Z" fill="#263238"/>
<path d="M34.2799 21.76C34.2299 21.922 34.1059 22.032 34.0019 22.008C33.8979 21.984 33.8539 21.832 33.9039 21.672C33.9539 21.512 34.0779 21.4 34.1819 21.424C34.2859 21.448 34.3299 21.6 34.2799 21.76Z" fill="#263238"/>
<path d="M34.226 21.444L33.876 21.244C33.876 21.244 33.98 21.6 34.226 21.444Z" fill="#263238"/>
<path d="M34.7999 22.26C34.544 22.594 34.247 22.8944 33.9159 23.154C34.0639 23.402 34.4499 23.394 34.4499 23.394L34.7999 22.26Z" fill="#BA4D3C"/>
<path d="M35.174 24.2C35.0817 24.1958 34.9899 24.1831 34.9 24.162C34.8937 24.1604 34.8879 24.1575 34.8828 24.1536C34.8777 24.1497 34.8734 24.1448 34.8703 24.1392C34.8671 24.1336 34.8651 24.1274 34.8643 24.121C34.8636 24.1147 34.8641 24.1082 34.866 24.102C34.8701 24.0895 34.8787 24.0789 34.8901 24.0722C34.9016 24.0656 34.915 24.0634 34.928 24.066C35.1319 24.1147 35.3442 24.117 35.5491 24.0727C35.754 24.0284 35.9464 23.9386 36.112 23.81C36.1213 23.8008 36.1339 23.7957 36.147 23.7957C36.16 23.7957 36.1726 23.8008 36.182 23.81C36.1864 23.8145 36.19 23.8198 36.1924 23.8256C36.1948 23.8314 36.1961 23.8377 36.1961 23.844C36.1961 23.8503 36.1948 23.8566 36.1924 23.8624C36.19 23.8682 36.1864 23.8735 36.182 23.878C35.8977 24.1069 35.5383 24.2217 35.174 24.2Z" fill="#263238"/>
<path d="M39.014 24.096C38.8674 24.2477 38.6923 24.3689 38.4987 24.4526C38.3051 24.5364 38.0968 24.581 37.8859 24.584C37.3399 24.584 37.2539 24.02 37.5599 23.552C37.8359 23.13 38.4519 22.624 38.9239 22.854C39.396 23.084 39.4 23.708 39.014 24.096Z" fill="#CE7A63"/>
<path d="M36.906 21.36C36.8932 21.3588 36.8809 21.3545 36.8701 21.3476C36.8593 21.3406 36.8504 21.3312 36.844 21.32C36.7804 21.2177 36.6922 21.1329 36.5873 21.0735C36.4825 21.0141 36.3645 20.982 36.244 20.98C36.2315 20.9806 36.219 20.9785 36.2074 20.974C36.1957 20.9695 36.1851 20.9626 36.1763 20.9537C36.1674 20.9449 36.1605 20.9343 36.156 20.9226C36.1515 20.911 36.1494 20.8985 36.15 20.886C36.1505 20.8596 36.1612 20.8345 36.1799 20.8159C36.1985 20.7972 36.2236 20.7865 36.25 20.786C36.4011 20.7867 36.5496 20.8258 36.6815 20.8996C36.8134 20.9734 36.9244 21.0796 37.004 21.208C37.0168 21.2307 37.0204 21.2575 37.0141 21.2828C37.0077 21.3081 36.992 21.33 36.97 21.344C36.951 21.3561 36.9285 21.3618 36.906 21.36Z" fill="#263238"/>
<path d="M33.7759 20.506C33.7511 20.5058 33.7274 20.4957 33.7099 20.478C33.7007 20.469 33.6933 20.4583 33.6883 20.4465C33.6833 20.4346 33.6807 20.4219 33.6807 20.409C33.6807 20.3961 33.6833 20.3834 33.6883 20.3715C33.6933 20.3597 33.7007 20.3489 33.7099 20.34C33.8209 20.2273 33.9565 20.142 34.1061 20.0906C34.2557 20.0392 34.4151 20.0233 34.5719 20.044C34.5843 20.0462 34.5961 20.0511 34.6064 20.0583C34.6167 20.0654 34.6254 20.0747 34.6319 20.0855C34.6383 20.0963 34.6424 20.1084 34.6438 20.1209C34.6451 20.1334 34.6438 20.146 34.6399 20.158C34.6329 20.1833 34.6167 20.205 34.5945 20.2191C34.5724 20.2331 34.5458 20.2384 34.5199 20.234C34.3953 20.2199 34.2692 20.2344 34.151 20.2763C34.0328 20.3183 33.9258 20.3865 33.8379 20.476C33.8214 20.4929 33.7994 20.5035 33.7759 20.506Z" fill="#263238"/>
<path d="M36.24 21.984L35.892 21.784C35.892 21.784 36 22.13 36.24 21.984Z" fill="#263238"/>
<path d="M25.056 35.954L25.14 36.492C25.1557 36.5918 25.1952 36.6864 25.255 36.7679C25.3149 36.8493 25.3934 36.9152 25.484 36.96L26.342 37.386C26.5106 37.4707 26.6972 37.5134 26.8859 37.5106C27.0746 37.5078 27.2599 37.4596 27.426 37.37L27.626 37.26C27.546 36.358 26.794 35.442 26.794 35.442L26.608 35.158C26.5717 35.0983 26.524 35.0465 26.4675 35.0055C26.411 34.9644 26.3469 34.9351 26.279 34.919C26.211 34.903 26.1406 34.9007 26.0717 34.9122C26.0029 34.9237 25.937 34.9488 25.878 34.986L25.31 35.346C25.2129 35.4115 25.1372 35.504 25.092 35.612C25.0469 35.72 25.0344 35.8389 25.056 35.954Z" fill="#CE7A63"/>
<path d="M28.454 37.37H26.486C26.392 37.3644 26.3024 37.3287 26.2304 37.2682C26.1583 37.2076 26.1077 37.1255 26.086 37.034L25.174 32.774C25.1621 32.7339 25.16 32.6915 25.1679 32.6504C25.1758 32.6093 25.1933 32.5707 25.2192 32.5378C25.245 32.5049 25.2784 32.4787 25.3165 32.4613C25.3545 32.444 25.3962 32.436 25.438 32.438H27.4C27.4938 32.4439 27.5832 32.4797 27.6552 32.5402C27.7272 32.6007 27.7779 32.6826 27.8 32.774L28.712 37.034C28.7232 37.0736 28.725 37.1153 28.7173 37.1557C28.7095 37.1961 28.6924 37.2342 28.6674 37.2668C28.6423 37.2995 28.61 37.3258 28.5729 37.3437C28.5358 37.3616 28.4951 37.3706 28.454 37.37Z" fill="#263238"/>
<path d="M27.8 34.86L28.4 34.726C28.5126 34.7006 28.6297 34.7026 28.7414 34.7319C28.8531 34.7611 28.9562 34.8167 29.042 34.894L29.858 35.626C30.018 35.771 30.1412 35.952 30.2173 36.1541C30.2935 36.3562 30.3205 36.5735 30.296 36.788L30.264 37.056C29.264 37.35 27.98 36.934 27.98 36.934L27.6 36.858C27.521 36.8448 27.4454 36.8159 27.3778 36.773C27.3101 36.7301 27.2518 36.6741 27.2061 36.6083C27.1604 36.5425 27.1284 36.4683 27.1119 36.3899C27.0954 36.3115 27.0947 36.2306 27.11 36.152L27.254 35.396C27.2829 35.2632 27.35 35.1417 27.447 35.0465C27.544 34.9513 27.6667 34.8865 27.8 34.86Z" fill="#CE7A63"/>
<path d="M39.4 33.378C39.362 33.55 39.328 33.684 39.288 33.832C39.248 33.98 39.208 34.12 39.166 34.262C39.08 34.544 38.99 34.826 38.896 35.106C38.696 35.662 38.486 36.214 38.24 36.756C37.9938 37.3039 37.7181 37.838 37.414 38.356C37.1009 38.8871 36.75 39.3951 36.364 39.876L36.334 39.914C36.2935 39.9638 36.2486 40.01 36.2 40.052C35.9194 40.2827 35.5787 40.4284 35.218 40.472C34.9623 40.5036 34.7033 40.4955 34.45 40.448C34.073 40.3732 33.7069 40.2516 33.36 40.086C32.7748 39.804 32.2165 39.4693 31.692 39.086C31.184 38.72 30.706 38.336 30.248 37.934C30.018 37.734 29.796 37.534 29.576 37.316C29.356 37.098 29.14 36.898 28.924 36.668C28.8164 36.5562 28.7537 36.4087 28.7479 36.2536C28.742 36.0986 28.7934 35.9468 28.8923 35.8272C28.9911 35.7076 29.1305 35.6285 29.2839 35.6051C29.4373 35.5816 29.5939 35.6154 29.724 35.7L29.736 35.71C30.22 36.014 30.716 36.332 31.212 36.624C31.708 36.916 32.202 37.208 32.7 37.468C33.1706 37.723 33.6601 37.9416 34.164 38.122C34.3571 38.1942 34.5588 38.2406 34.764 38.26C34.838 38.26 34.888 38.26 34.88 38.248C34.814 38.2516 34.7512 38.2778 34.702 38.322L34.536 38.498C34.8134 38.0775 35.0665 37.6414 35.294 37.192C35.52 36.73 35.736 36.256 35.932 35.768C36.128 35.28 36.308 34.784 36.476 34.282C36.562 34.032 36.644 33.78 36.72 33.528L36.832 33.15L36.934 32.792L36.948 32.744C36.9897 32.583 37.0626 32.4318 37.1627 32.299C37.2627 32.1661 37.388 32.0543 37.5313 31.9699C37.6745 31.8855 37.833 31.8302 37.9977 31.807C38.1624 31.7839 38.33 31.7934 38.491 31.835C38.652 31.8766 38.8032 31.9496 38.9361 32.0496C39.0689 32.1497 39.1807 32.275 39.2651 32.4182C39.3495 32.5615 39.4049 32.72 39.428 32.8847C39.4512 33.0494 39.4417 33.217 39.4 33.378Z" fill="#CE7A63"/>
<path d="M38.67 29.422C40.07 30.422 40.146 31.906 39.384 34.756C38.368 35.266 35.896 34.62 35.896 34.62C35.896 34.62 36.676 30.2 38.67 29.422Z" fill="#F6F968"/>
<path d="M31.51 28.308C29.79 28.44 28.968 29.682 28.156 32.518C28.766 33.478 31.22 34.194 31.22 34.194C31.22 34.194 32.824 30 31.51 28.308Z" fill="#F6F968"/>
</svg>
